<svg id="Lag_2" data-name="Lag 2" xmlns="http://www.w3.org/2000/svg" viewBox="0 0 439.92 63.91"><defs><style>.cls-1,.cls-3{fill:#060e9b;}.cls-2{fill:#f0fffd;stroke:#060e9b;stroke-miterlimit:10;stroke-width:0.8px;}.cls-3{font-size:7px;font-family:JosefinSans-Regular, Josefin Sans;}.cls-4{letter-spacing:-0.01em;}.cls-10,.cls-5{font-size:6px;}.cls-6{letter-spacing:-0.02em;}.cls-7{letter-spacing:-0.01em;}.cls-8{letter-spacing:-0.1em;}.cls-9{letter-spacing:-0.02em;}.cls-10,.cls-11{letter-spacing:-0.01em;}</style></defs><title>erfaring</title><path class="cls-1" d="M291,234.46c7.92-.23,15.83-.29,23.75-.36h11.88l11.87.08,47.5.28v.08l-47.5.28-11.87.08H314.75c-7.92-.07-15.83-.13-23.75-.36Z" transform="translate(-78.34 -198.26)"/><path class="cls-1" d="M386,234.46l47.5-.28,11.88-.08h11.87c7.92.07,15.83.13,23.75.36v.08c-7.92.23-15.83.29-23.75.36H445.38l-11.88-.08-47.5-.28Z" transform="translate(-78.34 -198.26)"/><path class="cls-1" d="M210,234.46c7.92-.23,15.83-.29,23.75-.36h11.88l11.87.08,47.5.28v.08l-47.5.28-11.87.08H233.75c-7.92-.07-15.83-.13-23.75-.36Z" transform="translate(-78.34 -198.26)"/><path class="cls-1" d="M116.5,234.46l47.5-.28,11.88-.08h11.87c7.92.07,15.83.13,23.75.36v.08c-7.92.23-15.83.29-23.75.36H175.88L164,234.82l-47.5-.28Z" transform="translate(-78.34 -198.26)"/><circle class="cls-2" cx="43.32" cy="36.05" r="11.43"/><circle class="cls-2" cx="131.32" cy="36.05" r="11.43"/><circle class="cls-2" cx="219.32" cy="36.05" r="11.43"/><circle class="cls-2" cx="307.32" cy="36.05" r="11.43"/><circle class="cls-2" cx="395.32" cy="36.05" r="11.43"/><text class="cls-3" transform="translate(31.98 6.03)">P<tspan class="cls-4" x="4.17" y="0">r</tspan><tspan x="6.73" y="0">aktik</tspan><tspan class="cls-5"><tspan x="-2.78" y="7.2">Meta </tspan><tspan class="cls-6" x="13.48" y="7.2">F</tspan><tspan x="16.9" y="7.2">ilm</tspan></tspan></text><text class="cls-3" transform="translate(35.54 60.03)">2015</text><text class="cls-3" transform="translate(294.08 60.03)">2015-2018</text><text class="cls-3" transform="translate(283.03 6.03)"><tspan class="cls-7">V</tspan><tspan x="4.94" y="0">iby Gymnasium </tspan><tspan class="cls-5"><tspan class="cls-8" x="-14.04" y="7.2">T</tspan><tspan x="-11.14" y="7.2">ysk A, Engelsk A, Psy</tspan><tspan class="cls-9" x="45.6" y="7.2">k</tspan><tspan x="48.49" y="7.2">ologi B</tspan></tspan></text><text class="cls-3" transform="translate(367.35 6.16)">Multimediedesign <tspan class="cls-5"><tspan x="19.68" y="7.2">EAAA</tspan></tspan></text><text class="cls-3" transform="translate(388 60.03)">2019 -</text><text class="cls-3" transform="translate(109.61 6.03)">Salgsassistent<tspan x="1.19" y="8.4"> </tspan><tspan class="cls-10" x="3.4" y="8.4">K</tspan><tspan class="cls-5" x="7.42" y="8.4">onditorbager</tspan></text><text class="cls-3" transform="translate(116.06 60.41)">2016-2017</text><text class="cls-3" transform="translate(188.04 6.03)">Servicemedarbejder <tspan class="cls-5"><tspan x="19.65" y="7.2">Pet</tspan><tspan class="cls-11" x="28.5" y="7.2">w</tspan><tspan x="32.49" y="7.2">orld</tspan></tspan></text><text class="cls-3" transform="translate(204.3 60.21)">2017-2018</text></svg>