<svg id="Lag_1" data-name="Lag 1" xmlns="http://www.w3.org/2000/svg" viewBox="0 0 267.57 72.04"><defs><style>.cls-1,.cls-3{fill:#060e9b;}.cls-2{fill:#fff;}.cls-3{font-size:9px;font-family:JosefinSans-Regular, Josefin Sans;}.cls-4{letter-spacing:-0.02em;}</style></defs><title>inspiration</title><path class="cls-1" d="M305,224.93l-21.16-20.77-.19-.19.19-.19,20.91-21,.25-.25.25.25,20.91,21,.19.19-.19.19Zm0,0,20.78-21.15v.38l-21-20.91h.5l-21,20.91v-.38Z" transform="translate(-66.05 -178.15)"/><path class="cls-1" d="M66.05,228.52l7.33-18.59c1.24-3.12,2.45-6.26,3.73-9.38l3.82-9.38.33-.82.31.83,14.09,37.25.09.25h-.26Zm.06,0,29.38-.16-.18.25L80.92,191.42h.65l-3.77,9.23c-1.24,3.07-2.56,6.13-3.85,9.21Z" transform="translate(-66.05 -178.15)"/><path class="cls-1" d="M113.5,228.52l-18,0h0l0,0L92.12,220l0-.05,0,0,18.87-36,.19-.36.17.37,10.42,22.25,10.36,22.28.09.2H132Zm0,0,18.5-.12-.13.2-5.32-11.07c-1.79-3.69-3.5-7.4-5.23-11.12L111,184.09h.37L92.31,220v-.09l3.23,8.56-.06,0Z" transform="translate(-66.05 -178.15)"/><path class="cls-1" d="M78.14,199.41c.48,1.4.9,2.82,1.33,4.23a16.76,16.76,0,0,0,.71,2,.82.82,0,0,0,.09.11h0l0,0a1.18,1.18,0,0,0,.2-.38,9.76,9.76,0,0,0,.32-1,6.24,6.24,0,0,1,.94-2.1,1.23,1.23,0,0,1,1.2-.45,2.35,2.35,0,0,1,1,.58A13.8,13.8,0,0,1,86.59,206a18.1,18.1,0,0,0-2.84-3.35c-.55-.44-1.25-.71-1.65-.13a5.7,5.7,0,0,0-.81,2c-.11.35-.21.71-.35,1.07a1.53,1.53,0,0,1-.36.57.5.5,0,0,1-.5.08.79.79,0,0,1-.29-.29,11.83,11.83,0,0,1-.69-2.17C78.75,202.31,78.42,200.86,78.14,199.41Z" transform="translate(-66.05 -178.15)"/><path class="cls-1" d="M105.62,194.1l1.12,2.69.44,1.38c.07.23.14.46.23.68s.22.46.33.43a1.8,1.8,0,0,0,.37-.48l.4-.6c.27-.4.54-.81.83-1.2a2.12,2.12,0,0,1,.25-.31.47.47,0,0,1,.53,0,1.55,1.55,0,0,1,.54.61c.24.43.42.88.65,1.29s.6.78.75.56a9.34,9.34,0,0,0,.84-1.12c.54-.8,1.06-1.59,1.64-2.4a1.19,1.19,0,0,1,.32-.31.76.76,0,0,1,.5-.1,1.46,1.46,0,0,1,.75.39,5.43,5.43,0,0,1,.93,1.18,18,18,0,0,1,1.25,2.63l0,0a26.52,26.52,0,0,0-1.51-2.46,5.17,5.17,0,0,0-.91-1.05,1,1,0,0,0-.52-.26c-.17,0-.22,0-.37.25-.54.78-1.07,1.6-1.64,2.38a9.09,9.09,0,0,1-.94,1.17.59.59,0,0,1-.51.16.8.8,0,0,1-.42-.21,2.14,2.14,0,0,1-.47-.65c-.23-.44-.4-.9-.62-1.31A1.37,1.37,0,0,0,110,197a.32.32,0,0,0-.09,0c-.05,0,0,0-.06,0l-.21.24c-.29.38-.57.78-.85,1.17l-.41.59-.22.3c-.09.09-.13.23-.36.28a.45.45,0,0,1-.4-.25,2.14,2.14,0,0,1-.16-.35c-.08-.24-.15-.47-.21-.7l-.39-1.4-1-2.7Z" transform="translate(-66.05 -178.15)"/><polygon class="cls-1" points="93.45 49.35 93.31 37.1 93.21 24.85 93.12 0.35 93.12 0.02 93.45 0.02 116.45 0.02 116.77 0.02 116.77 0.35 116.68 24.85 116.58 37.1 116.45 49.35 116.31 37.1 116.21 24.85 116.12 0.35 116.45 0.68 93.45 0.67 93.77 0.35 93.68 24.85 93.58 37.1 93.45 49.35"/><path class="cls-1" d="M168.5,228c-.14-4.08-.21-8.17-.27-12.25l-.08-12.25.08-12.25c.06-4.08.12-8.17.27-12.25.15,4.08.21,8.17.27,12.25l.08,12.25-.08,12.25C168.71,219.83,168.64,223.92,168.5,228Z" transform="translate(-66.05 -178.15)"/><path class="cls-1" d="M173.5,228c-.14-4.08-.21-8.17-.27-12.25l-.08-12.25.08-12.25c.06-4.08.12-8.17.27-12.25.15,4.08.21,8.17.27,12.25l.08,12.25-.08,12.25C173.71,219.83,173.64,223.92,173.5,228Z" transform="translate(-66.05 -178.15)"/><path class="cls-1" d="M160,194.5c1.92-.13,3.83-.19,5.75-.24s3.84,0,5.75,0,3.84,0,5.75.11,3.83.14,5.75.3c-1.92.13-3.83.19-5.75.24s-3.84,0-5.75,0-3.84,0-5.75-.11S161.92,194.65,160,194.5Z" transform="translate(-66.05 -178.15)"/><path class="cls-1" d="M160,207.5c1.92-.14,3.83-.21,5.75-.27s3.83-.07,5.75-.08,3.83,0,5.75.08,3.83.12,5.75.27c-1.92.15-3.83.21-5.75.27s-3.83.07-5.75.08-3.83,0-5.75-.08S161.92,207.64,160,207.5Z" transform="translate(-66.05 -178.15)"/><circle class="cls-2" cx="104.95" cy="23.85" r="10"/><path class="cls-1" d="M161,202a10,10,0,0,0,3,7,9.82,9.82,0,0,0,13.9-.18,9.83,9.83,0,0,0,0-13.72A9.82,9.82,0,0,0,164,195,10,10,0,0,0,161,202Zm0,0a10,10,0,0,1,2.89-7.11,10.16,10.16,0,0,1,14.39-.17,10.17,10.17,0,0,1,0,14.56,10.19,10.19,0,0,1-14.39-.17A10,10,0,0,1,161,202Z" transform="translate(-66.05 -178.15)"/><path class="cls-1" d="M160,184.5c1.92-.13,3.83-.19,5.75-.24s3.84,0,5.75,0,3.84,0,5.75.11,3.83.14,5.75.3c-1.92.13-3.83.19-5.75.24s-3.84,0-5.75,0-3.84,0-5.75-.11S161.92,184.65,160,184.5Z" transform="translate(-66.05 -178.15)"/><path class="cls-1" d="M160,218.5c1.92-.13,3.83-.19,5.75-.24s3.84,0,5.75,0,3.84,0,5.75.11,3.83.14,5.75.3c-1.92.13-3.83.19-5.75.24s-3.84,0-5.75,0-3.84,0-5.75-.11S161.92,218.65,160,218.5Z" transform="translate(-66.05 -178.15)"/><line class="cls-2" x1="104.32" y1="23.29" x2="107.57" y2="16.4"/><path class="cls-1" d="M170.36,201.43c.47-1.17,1-2.35,1.46-3.52.24-.58.46-1.18.76-1.74a14.73,14.73,0,0,1,1-1.63l0,0a12.38,12.38,0,0,1-.6,1.81c-.24.59-.56,1.14-.86,1.71-.58,1.12-1.17,2.25-1.78,3.37Z" transform="translate(-66.05 -178.15)"/><line class="cls-2" x1="107.34" y1="27.84" x2="104.32" y2="23.26"/><path class="cls-1" d="M173.37,206c-.56-.73-1.11-1.46-1.66-2.2a10.78,10.78,0,0,1-.79-1.12,6.32,6.32,0,0,1-.57-1.27l0,0a7.08,7.08,0,0,1,1,1,11.37,11.37,0,0,1,.71,1.17c.47.79.92,1.58,1.36,2.39Z" transform="translate(-66.05 -178.15)"/><path class="cls-1" d="M253.52,227.52l-30,.12h-.14v-.14l-.14-49v-.28h.28c5,0,10-.08,15-.07h15.35v.35l0,12.31-.1,12.29Zm0,0-.21-24.58-.1-12.21,0-12.19.35.35h-15c-5,0-10,0-15-.07l.28-.28-.14,49-.14-.14Z" transform="translate(-66.05 -178.15)"/><path class="cls-1" d="M223.47,207.48a11.56,11.56,0,0,1,3.59-2.89,13.27,13.27,0,0,1,4.46-1.26,8.91,8.91,0,0,1,4.6.72,6,6,0,0,1,1.94,1.38,18.65,18.65,0,0,1,1.31,1.91,2.53,2.53,0,0,0,1.77,1,4.8,4.8,0,0,0,2.12-.18,13.41,13.41,0,0,0,3.91-2.12,26.17,26.17,0,0,0,6.3-6.55l.06,0a21.12,21.12,0,0,1-5.93,7.06,12.25,12.25,0,0,1-4.15,2.23A5.37,5.37,0,0,1,241,209a3.21,3.21,0,0,1-2.1-1.28,18.39,18.39,0,0,0-1.24-1.9,5.3,5.3,0,0,0-1.76-1.31,8.4,8.4,0,0,0-4.38-.78,12.67,12.67,0,0,0-4.39,1.1,11.42,11.42,0,0,0-3.62,2.74Z" transform="translate(-66.05 -178.15)"/><circle class="cls-2" cx="165.51" cy="10.06" r="3.93"/><path class="cls-1" d="M227.64,188.21a4,4,0,0,0,1.17,2.76,3.85,3.85,0,0,0,2.76,1.05,3.81,3.81,0,1,0-2.76-6.56A3.93,3.93,0,0,0,227.64,188.21Zm0,0a4.06,4.06,0,0,1,6.86-2.93,4.06,4.06,0,0,1,0,5.86,4.05,4.05,0,0,1-6.86-2.93Z" transform="translate(-66.05 -178.15)"/><path class="cls-2" d="M305.29,229.5a155.6,155.6,0,0,0-5.81-31,125.46,125.46,0,0,0-4.35-12.24,29.29,29.29,0,0,1,19.35,0c-1.32,3.33-2.64,7.13-3.87,11.42A150.69,150.69,0,0,0,305.29,229.5Z" transform="translate(-66.05 -178.15)"/><path class="cls-1" d="M305.29,229.54c-.42-3.77-.82-7.41-1.43-11.09s-1.3-7.32-2.15-10.93a133,133,0,0,0-6.81-21.18l-.1-.24.25-.08a29.75,29.75,0,0,1,19.54-.08l.32.11-.12.32c-1.34,3.44-2.54,6.93-3.57,10.47s-1.93,7.13-2.72,10.73-1.43,7.25-1.95,10.91S305.66,225.78,305.29,229.54Zm0-.08c.1-3.63.42-7.37.87-11s1-7.34,1.74-11,1.6-7.25,2.65-10.81,2.24-7.07,3.63-10.51l.2.43a29,29,0,0,0-19.17-.08l.14-.33a131.41,131.41,0,0,1,6.65,21.3c.81,3.63,1.5,7.29,2,11S305.05,225.82,305.29,229.46Z" transform="translate(-66.05 -178.15)"/><path class="cls-2" d="M312.74,191.47a16,16,0,0,1,2.1.14,17.23,17.23,0,0,1,3.46.83c-.94,1.55-1.87,3.19-2.77,4.94a93.23,93.23,0,0,0-9.37,31.23" transform="translate(-66.05 -178.15)"/><path class="cls-1" d="M312.74,191.43c.94.08,1.9,0,2.83.22a17.77,17.77,0,0,1,2.77.68l.12,0-.07.12c-1.52,2.82-3.12,5.59-4.38,8.53a82.69,82.69,0,0,0-3.4,8.95c-.95,3.05-1.76,6.14-2.51,9.24s-1.34,6.25-1.91,9.41h-.07A75.29,75.29,0,0,1,310,209.78a86.52,86.52,0,0,1,3.61-8.94c.69-1.45,1.38-2.9,2.18-4.29l2.41-4.17.06.16a18.59,18.59,0,0,0-2.72-.75c-.93-.19-1.88-.19-2.81-.29Z" transform="translate(-66.05 -178.15)"/><path class="cls-2" d="M305.83,229.5a59.89,59.89,0,0,1,7.62-20.59,51.2,51.2,0,0,1,6.24-8.24c-.22-.35-1.48-2.4-3.47-2.47a3.27,3.27,0,0,0-1.21.21" transform="translate(-66.05 -178.15)"/><path class="cls-1" d="M305.8,229.49A60,60,0,0,1,310.46,214a54.35,54.35,0,0,1,3.91-7.14,40.6,40.6,0,0,1,5.12-6.34l0,.32a5.59,5.59,0,0,0-1.8-2,3.08,3.08,0,0,0-2.63-.37l0-.06a3.19,3.19,0,0,1,2.82.12,5.92,5.92,0,0,1,2.1,2l.11.17-.14.16a64.76,64.76,0,0,0-4.94,6.36,53,53,0,0,0-4,7,62.37,62.37,0,0,0-5,15.33Z" transform="translate(-66.05 -178.15)"/><path class="cls-2" d="M306.16,229a38.53,38.53,0,0,1,8-14.37,31,31,0,0,1,6.92-5.76c-.1-.35-1.11-3.57-3.46-4.12a3.21,3.21,0,0,0-1.39,0" transform="translate(-66.05 -178.15)"/><path class="cls-1" d="M306.12,229a39.49,39.49,0,0,1,5.47-11.57,30.19,30.19,0,0,1,9.31-8.83l-.14.37a8.13,8.13,0,0,0-1.53-3,3.8,3.8,0,0,0-1.33-1,3.15,3.15,0,0,0-1.67-.21v-.06a2.92,2.92,0,0,1,1.78,0,3.86,3.86,0,0,1,1.54,1,7.71,7.71,0,0,1,1.84,3.1l.08.22-.22.14a39.07,39.07,0,0,0-5,3.85,32.77,32.77,0,0,0-4.25,4.71,40.46,40.46,0,0,0-5.78,11.31Z" transform="translate(-66.05 -178.15)"/><path class="cls-2" d="M297.18,191.32a21.06,21.06,0,0,0-2.28.15,20.12,20.12,0,0,0-3.76.82c1,1.55,2,3.2,3,4.94a87.78,87.78,0,0,1,10.18,31.24" transform="translate(-66.05 -178.15)"/><path class="cls-1" d="M297.18,191.36l-1.53.11a11.25,11.25,0,0,0-1.52.18,19.16,19.16,0,0,0-3,.75l.06-.17,2.58,4.12c.86,1.37,1.61,2.81,2.36,4.26a87.14,87.14,0,0,1,3.91,8.91,72.18,72.18,0,0,1,4.29,18.94h-.07c-.61-3.18-1.26-6.34-2.06-9.47s-1.71-6.21-2.76-9.27a79.93,79.93,0,0,0-3.7-8.93c-1.38-2.93-3.1-5.66-4.74-8.45l-.07-.13.13,0a20.79,20.79,0,0,1,3-.68,13.18,13.18,0,0,1,1.53-.14l1.54-.07Z" transform="translate(-66.05 -178.15)"/><path class="cls-2" d="M304.68,229.35a56.78,56.78,0,0,0-8.28-20.59,51.3,51.3,0,0,0-6.77-8.23c.23-.36,1.6-2.41,3.76-2.47a3.56,3.56,0,0,1,1.32.2" transform="translate(-66.05 -178.15)"/><path class="cls-1" d="M304.65,229.36a62.17,62.17,0,0,0-2.22-7.93,58.68,58.68,0,0,0-3.31-7.53,49.89,49.89,0,0,0-4.39-6.92,67.07,67.07,0,0,0-5.29-6.26l-.17-.16.13-.18a6,6,0,0,1,2.32-2,3.68,3.68,0,0,1,3-.1l0,.07a3.55,3.55,0,0,0-2.82.35,5.86,5.86,0,0,0-2,2l0-.35a42.24,42.24,0,0,1,5.47,6.24,53.28,53.28,0,0,1,4.26,7.11,56.77,56.77,0,0,1,5.16,15.67Z" transform="translate(-66.05 -178.15)"/><path class="cls-2" d="M304.33,228.9a37.72,37.72,0,0,0-8.68-14.37,33.62,33.62,0,0,0-7.52-5.77c.11-.34,1.2-3.57,3.76-4.11a3.41,3.41,0,0,1,1.5,0" transform="translate(-66.05 -178.15)"/><path class="cls-1" d="M304.3,228.91a39.12,39.12,0,0,0-6.38-11.45,33.77,33.77,0,0,0-4.6-4.66,42.12,42.12,0,0,0-5.35-3.75l-.24-.15.09-.24a7.63,7.63,0,0,1,2.05-3.16,4.12,4.12,0,0,1,1.67-.9,3.36,3.36,0,0,1,1.86,0v.07a3.6,3.6,0,0,0-1.76.19,4.08,4.08,0,0,0-1.46,1,7.71,7.71,0,0,0-1.73,3l-.16-.38a31.64,31.64,0,0,1,10,8.69,35.58,35.58,0,0,1,3.56,5.6,39.83,39.83,0,0,1,2.53,6.12Z" transform="translate(-66.05 -178.15)"/><text class="cls-3" transform="translate(15.14 69.9)">Natu<tspan class="cls-4" x="20.99" y="0">r</tspan><tspan x="24.21" y="0">en</tspan></text><text class="cls-3" transform="translate(84.16 69.53)">Byrummet</text><text class="cls-3" transform="translate(160.23 69.43)">Kunst</text><text class="cls-3" transform="translate(220.57 69.43)">Art Deco</text></svg>