<svg id="Lag_1" data-name="Lag 1" xmlns="http://www.w3.org/2000/svg" viewBox="0 0 267.58 71.9"><defs><style>.cls-1,.cls-4{fill:#060e9b;}.cls-2{fill:#dcfcf9;}.cls-3{fill:#fff;}.cls-4{font-size:7px;font-family:JosefinSans-Regular, Josefin Sans;}.cls-5{letter-spacing:-0.02em;}</style></defs><title>inspiration1</title><path class="cls-1" d="M305,224.93l-10.56-10.3-10.62-10.45-.22-.21.22-.22,20.9-21,.28-.29.28.29,20.91,21,.21.22-.21.21-10.63,10.45Zm0,0,20.75-21.18v.43l-21-20.9h.56l-21,20.9v-.43Z" transform="translate(-66.05 -178.1)"/><path class="cls-1" d="M66.05,228.52l7.28-18.58c1.24-3.13,2.45-6.27,3.73-9.4l3.82-9.39.38-.93.36.94,14.06,37.27.11.28h-.3Zm.07,0,29.37-.19-.2.28L80.88,191.44h.74l-3.77,9.21c-1.24,3.07-2.56,6.13-3.84,9.21Z" transform="translate(-66.05 -178.1)"/><path class="cls-1" d="M113.5,228.54l-18,.07h-.08l0-.07L92.06,220l0-.07,0-.07,18.81-36,.3-.59.28.6L121.9,206.1l5.19,11.13,5.12,11.17.15.34H132Q122.75,228.58,113.5,228.54Zm0-.08q9.25,0,18.5-.19l-.21.33-5.37-11c-1.8-3.68-3.51-7.4-5.24-11.11l-10.31-22.3h.59L92.37,220v-.14l3.22,8.56-.1-.07Z" transform="translate(-66.05 -178.1)"/><path class="cls-1" d="M78.14,199.41c.54,1.38,1,2.8,1.44,4.2a17,17,0,0,0,.73,2s.08.07,0,0l-.1,0s0,0,0,0a1.29,1.29,0,0,0,.16-.31c.12-.31.21-.67.32-1a6.17,6.17,0,0,1,1-2.16,1.58,1.58,0,0,1,.58-.42,1.3,1.3,0,0,1,.75-.06,2.3,2.3,0,0,1,1.1.63A12.53,12.53,0,0,1,86.59,206c-.47-.58-.9-1.18-1.39-1.73a10,10,0,0,0-1.52-1.53,2.17,2.17,0,0,0-.84-.41.62.62,0,0,0-.63.29,6.18,6.18,0,0,0-.78,1.89c-.11.35-.2.71-.35,1.09a1.6,1.6,0,0,1-.41.62.61.61,0,0,1-.65.11.87.87,0,0,1-.36-.36,10.83,10.83,0,0,1-.67-2.21C78.66,202.33,78.36,200.88,78.14,199.41Z" transform="translate(-66.05 -178.1)"/><path class="cls-1" d="M105.63,194.1l1.15,2.67.46,1.38c.07.23.15.46.23.67s.25.43.26.39.07-.07.12-.16l.2-.29.39-.61c.27-.41.53-.81.82-1.21a1.84,1.84,0,0,1,.27-.32.47.47,0,0,1,.34-.13.54.54,0,0,1,.29.07,1.68,1.68,0,0,1,.59.65c.26.45.44.9.67,1.29a1.76,1.76,0,0,0,.36.48.27.27,0,0,0,.15.07s-.05,0,0,0a8.73,8.73,0,0,0,.81-1.1c.53-.8,1-1.59,1.64-2.4a1.5,1.5,0,0,1,.36-.34.87.87,0,0,1,.59-.12,1.6,1.6,0,0,1,.83.43,5.07,5.07,0,0,1,.92,1.23,15.21,15.21,0,0,1,1.19,2.68l-.08,0c-.51-.82-1-1.65-1.57-2.41a5.89,5.89,0,0,0-.91-1,.88.88,0,0,0-.45-.22c-.13,0-.07,0-.24.2-.52.77-1.06,1.61-1.64,2.38a9.72,9.72,0,0,1-1,1.18,1.18,1.18,0,0,1-.26.16.55.55,0,0,1-.35,0,1,1,0,0,1-.5-.24,2.4,2.4,0,0,1-.48-.69c-.24-.45-.4-.91-.61-1.31a1.21,1.21,0,0,0-.33-.44s0,0,0,0,0,0,0,0a1.64,1.64,0,0,0-.21.23c-.29.37-.57.77-.85,1.16l-.42.59-.22.3c-.09.09-.12.23-.41.3a.53.53,0,0,1-.47-.28,2.3,2.3,0,0,1-.16-.37c-.08-.24-.15-.47-.21-.71l-.37-1.39-1-2.72Z" transform="translate(-66.05 -178.1)"/><path class="cls-1" d="M159.5,227.5l-.16-12.25-.1-12.25c-.08-8.17-.1-16.33-.11-24.5v-.37h.37q11.5,0,23,0h.37v.37q0,12.25-.1,24.5l-.11,12.25-.16,12.25-.16-12.25L182.23,203q-.1-12.25-.1-24.5l.37.37q-11.5,0-23,0l.37-.37c0,8.17,0,16.33-.11,24.5l-.1,12.25Z" transform="translate(-66.05 -178.1)"/><path class="cls-1" d="M168.5,228c-.16-4.08-.24-8.17-.31-12.25s-.06-8.17-.09-12.25,0-8.17.09-12.25.14-8.17.31-12.25c.17,4.08.24,8.17.31,12.25s.06,8.17.09,12.25,0,8.17-.09,12.25S168.66,223.92,168.5,228Z" transform="translate(-66.05 -178.1)"/><path class="cls-1" d="M173.5,228c-.16-4.08-.24-8.17-.31-12.25s-.06-8.17-.09-12.25,0-8.17.09-12.25.14-8.17.31-12.25c.17,4.08.24,8.17.31,12.25s.06,8.17.09,12.25,0,8.17-.09,12.25S173.66,223.92,173.5,228Z" transform="translate(-66.05 -178.1)"/><path class="cls-1" d="M160,194.5c1.92-.16,3.83-.22,5.75-.28s3.84-.06,5.75-.06,3.84,0,5.75.12,3.83.16,5.75.34c-1.92.15-3.83.22-5.75.28s-3.84.06-5.75.06-3.84,0-5.75-.12S161.92,194.67,160,194.5Z" transform="translate(-66.05 -178.1)"/><path class="cls-1" d="M160,207.5c1.92-.16,3.83-.24,5.75-.31s3.83-.08,5.75-.09,3.83,0,5.75.09,3.83.14,5.75.31c-1.92.17-3.83.24-5.75.31s-3.83.08-5.75.09-3.83,0-5.75-.09S161.92,207.66,160,207.5Z" transform="translate(-66.05 -178.1)"/><circle class="cls-2" cx="104.95" cy="23.9" r="10"/><path class="cls-1" d="M161,202a10,10,0,0,0,3,7,9.8,9.8,0,0,0,13.86-.2,9.81,9.81,0,0,0,0-13.66A9.8,9.8,0,0,0,164,195,10,10,0,0,0,161,202Zm0,0a10,10,0,0,1,2.89-7.11,10.19,10.19,0,0,1,14.42-.2,10.19,10.19,0,0,1,0,14.62,10.19,10.19,0,0,1-14.42-.2A10,10,0,0,1,161,202Z" transform="translate(-66.05 -178.1)"/><path class="cls-1" d="M160,184.5c1.92-.16,3.83-.22,5.75-.28s3.84-.06,5.75-.06,3.84,0,5.75.12,3.83.16,5.75.34c-1.92.15-3.83.22-5.75.28s-3.84.06-5.75.06-3.84,0-5.75-.12S161.92,184.67,160,184.5Z" transform="translate(-66.05 -178.1)"/><path class="cls-1" d="M160,218.5c1.92-.16,3.83-.22,5.75-.28s3.84-.06,5.75-.06,3.84,0,5.75.12,3.83.16,5.75.34c-1.92.15-3.83.22-5.75.28s-3.84.06-5.75.06-3.84,0-5.75-.12S161.92,218.67,160,218.5Z" transform="translate(-66.05 -178.1)"/><line class="cls-3" x1="104.33" y1="23.34" x2="107.57" y2="16.45"/><path class="cls-1" d="M170.34,201.43c.44-1.2.89-2.39,1.37-3.57a13.5,13.5,0,0,1,.74-1.75,7.75,7.75,0,0,1,1.14-1.57l.07,0a8.24,8.24,0,0,1-.49,1.88,13.55,13.55,0,0,1-.88,1.69c-.61,1.11-1.23,2.22-1.88,3.32Z" transform="translate(-66.05 -178.1)"/><line class="cls-3" x1="107.34" y1="27.89" x2="104.32" y2="23.31"/><path class="cls-1" d="M173.36,206c-.6-.7-1.18-1.41-1.75-2.13a7.4,7.4,0,0,1-.82-1.11,4.41,4.41,0,0,1-.45-1.34l.06,0a4.2,4.2,0,0,1,1.06.94,6.71,6.71,0,0,1,.69,1.19c.44.81.87,1.62,1.28,2.45Z" transform="translate(-66.05 -178.1)"/><path class="cls-1" d="M253.53,227.53l-30,.13h-.16v-.16l-.16-49v-.32h.32c5,0,10-.09,15-.08h15.4v.4c0,4.11,0,8.22,0,12.32l-.1,12.29Zm-.06-.06-.24-24.58-.1-12.21c0-4.07,0-8.12,0-12.18l.4.4h-15c-5,0-10-.05-15-.08l.32-.32-.16,49-.16-.16Z" transform="translate(-66.05 -178.1)"/><path class="cls-1" d="M223.47,207.47a11.55,11.55,0,0,1,3.58-2.89,13.05,13.05,0,0,1,4.46-1.27,8.86,8.86,0,0,1,4.62.71,5.81,5.81,0,0,1,2,1.39,18.47,18.47,0,0,1,1.33,1.91,2.55,2.55,0,0,0,1.74,1,4.72,4.72,0,0,0,2.1-.19,9.7,9.7,0,0,0,2-.89,16.32,16.32,0,0,0,1.88-1.22,26.83,26.83,0,0,0,6.33-6.51l.06,0a20.84,20.84,0,0,1-5.9,7.1,12.37,12.37,0,0,1-4.17,2.24A5.42,5.42,0,0,1,241,209a3.2,3.2,0,0,1-2.13-1.29,17.55,17.55,0,0,0-1.24-1.91,5.27,5.27,0,0,0-1.75-1.3,8.31,8.31,0,0,0-4.35-.78,12.81,12.81,0,0,0-4.39,1.08,11.31,11.31,0,0,0-3.63,2.74Z" transform="translate(-66.05 -178.1)"/><path class="cls-1" d="M227.64,188.21a3.73,3.73,0,1,0,1.19-2.74A3.77,3.77,0,0,0,227.64,188.21Zm0,0a4.13,4.13,0,1,1,8.26,0,4.12,4.12,0,0,1-4.33,4.13A4.14,4.14,0,0,1,227.64,188.21Z" transform="translate(-66.05 -178.1)"/><path class="cls-2" d="M305.29,229.5a155.6,155.6,0,0,0-5.81-31,125.46,125.46,0,0,0-4.35-12.24,29.29,29.29,0,0,1,19.35,0c-1.32,3.33-2.64,7.13-3.87,11.42A150.69,150.69,0,0,0,305.29,229.5Z" transform="translate(-66.05 -178.1)"/><path class="cls-1" d="M305.29,229.54c-.43-3.77-.83-7.41-1.44-11.09s-1.31-7.32-2.16-10.93a133.25,133.25,0,0,0-6.82-21.17l-.11-.27L295,186a30,30,0,0,1,9.76-1.7,30.49,30.49,0,0,1,9.8,1.6l.38.13-.15.37c-1.33,3.44-2.53,6.93-3.57,10.47s-1.92,7.12-2.71,10.72-1.41,7.25-1.95,10.91S305.68,225.78,305.29,229.54Zm0-.08c.08-3.62.4-7.38.82-11s1-7.35,1.74-11,1.6-7.25,2.65-10.81,2.24-7.08,3.63-10.52l.23.49a29.89,29.89,0,0,0-9.56-1.67,29.47,29.47,0,0,0-9.58,1.58l.16-.37a131.37,131.37,0,0,1,6.64,21.3q1.22,5.46,2,11C304.59,222.08,305.06,225.83,305.29,229.46Z" transform="translate(-66.05 -178.1)"/><path class="cls-2" d="M312.74,191.47a16,16,0,0,1,2.1.14,17.23,17.23,0,0,1,3.46.83c-.94,1.55-1.87,3.19-2.77,4.94a93.23,93.23,0,0,0-9.37,31.23" transform="translate(-66.05 -178.1)"/><path class="cls-1" d="M312.74,191.43a26.74,26.74,0,0,1,2.83.21,17.5,17.5,0,0,1,2.77.68l.14.05-.07.13c-1.52,2.82-3.11,5.59-4.37,8.53a82,82,0,0,0-3.39,9c-.94,3-1.75,6.13-2.51,9.23s-1.35,6.24-1.94,9.4h-.08a71.4,71.4,0,0,1,1.3-9.55,69.93,69.93,0,0,1,2.55-9.3,88.71,88.71,0,0,1,3.62-8.93c.69-1.45,1.39-2.9,2.19-4.29l2.42-4.17.06.18a18.13,18.13,0,0,0-2.71-.75c-.93-.19-1.88-.19-2.81-.29Z" transform="translate(-66.05 -178.1)"/><path class="cls-2" d="M305.83,229.5a59.89,59.89,0,0,1,7.62-20.59,51.2,51.2,0,0,1,6.24-8.24c-.22-.35-1.48-2.4-3.47-2.47a3.27,3.27,0,0,0-1.21.21" transform="translate(-66.05 -178.1)"/><path class="cls-1" d="M305.8,229.49A60,60,0,0,1,310.42,214a55.78,55.78,0,0,1,3.91-7.16,40.09,40.09,0,0,1,5.13-6.34l0,.37a5.56,5.56,0,0,0-1.79-2,3.07,3.07,0,0,0-2.61-.38l0-.08a3.19,3.19,0,0,1,2.84.11,5.9,5.9,0,0,1,2.12,2l.13.19-.17.18a70.06,70.06,0,0,0-4.92,6.36,53,53,0,0,0-4.05,7,62.72,62.72,0,0,0-5.07,15.31Z" transform="translate(-66.05 -178.1)"/><path class="cls-2" d="M306.16,229a38.53,38.53,0,0,1,8-14.37,31,31,0,0,1,6.92-5.76c-.1-.35-1.11-3.57-3.46-4.12a3.21,3.21,0,0,0-1.39,0" transform="translate(-66.05 -178.1)"/><path class="cls-1" d="M306.12,229a39,39,0,0,1,5.45-11.59,35.47,35.47,0,0,1,4.17-4.92,24.85,24.85,0,0,1,5.14-3.93l-.16.42a8.14,8.14,0,0,0-1.52-3,3.64,3.64,0,0,0-1.31-1,3,3,0,0,0-1.66-.22v-.08a3,3,0,0,1,1.78,0,3.75,3.75,0,0,1,1.57,1,7.8,7.8,0,0,1,1.86,3.1l.09.26-.26.16a42.36,42.36,0,0,0-5,3.84,33.24,33.24,0,0,0-4.25,4.7,40.89,40.89,0,0,0-5.81,11.3Z" transform="translate(-66.05 -178.1)"/><path class="cls-2" d="M297.18,191.32a21.06,21.06,0,0,0-2.28.15,20.12,20.12,0,0,0-3.76.82c1,1.55,2,3.2,3,4.94a87.78,87.78,0,0,1,10.18,31.24" transform="translate(-66.05 -178.1)"/><path class="cls-1" d="M297.18,191.36l-1.53.12a10.92,10.92,0,0,0-1.51.18,20.18,20.18,0,0,0-3,.75l.07-.19,2.59,4.12c.87,1.37,1.62,2.81,2.37,4.25a87.21,87.21,0,0,1,3.92,8.91,66.36,66.36,0,0,1,2.79,9.34,69.61,69.61,0,0,1,1.46,9.62h-.08c-.63-3.18-1.28-6.34-2.1-9.46s-1.71-6.21-2.75-9.26a80.81,80.81,0,0,0-3.69-8.94c-1.37-2.92-3.09-5.66-4.72-8.45l-.09-.14.16-.05a20.49,20.49,0,0,1,3-.68,11.28,11.28,0,0,1,1.53-.13l1.54-.08Z" transform="translate(-66.05 -178.1)"/><path class="cls-2" d="M304.68,229.35a56.78,56.78,0,0,0-8.28-20.59,51.3,51.3,0,0,0-6.77-8.23c.23-.36,1.6-2.41,3.76-2.47a3.56,3.56,0,0,1,1.32.2" transform="translate(-66.05 -178.1)"/><path class="cls-1" d="M304.64,229.36a60.07,60.07,0,0,0-2.24-7.92,55.35,55.35,0,0,0-3.31-7.52,49.86,49.86,0,0,0-4.4-6.91,68.53,68.53,0,0,0-5.28-6.26l-.19-.19.15-.21a6.1,6.1,0,0,1,2.34-2,3.66,3.66,0,0,1,3-.07l0,.07a3.66,3.66,0,0,0-2.81.37,5.78,5.78,0,0,0-2,2l0-.4a41.24,41.24,0,0,1,5.49,6.24,54,54,0,0,1,4.26,7.12,56.49,56.49,0,0,1,5.12,15.69Z" transform="translate(-66.05 -178.1)"/><path class="cls-2" d="M304.33,228.9a37.72,37.72,0,0,0-8.68-14.37,33.62,33.62,0,0,0-7.52-5.77c.11-.34,1.2-3.57,3.76-4.11a3.41,3.41,0,0,1,1.5,0" transform="translate(-66.05 -178.1)"/><path class="cls-1" d="M304.29,228.91a39,39,0,0,0-6.4-11.43,34.26,34.26,0,0,0-4.6-4.65,44.18,44.18,0,0,0-5.35-3.74l-.27-.17.1-.27a9.78,9.78,0,0,1,.84-1.72,6.58,6.58,0,0,1,1.24-1.45,4.22,4.22,0,0,1,1.68-.9,3.39,3.39,0,0,1,1.87,0v.07a3.59,3.59,0,0,0-1.76.21,4,4,0,0,0-1.43,1,7.81,7.81,0,0,0-1.72,3l-.17-.44a26.9,26.9,0,0,1,5.47,3.83,36.09,36.09,0,0,1,4.53,4.88,35.62,35.62,0,0,1,3.55,5.61,39.85,39.85,0,0,1,2.51,6.13Z" transform="translate(-66.05 -178.1)"/><text class="cls-4" transform="translate(18.9 68.4)">Natu<tspan class="cls-5" x="16.32" y="0">r</tspan><tspan x="18.83" y="0">en</tspan></text><text class="cls-4" transform="translate(88.73 68.03)">Byrummet</text><text class="cls-4" transform="translate(162.79 67.93)">Kunst</text><text class="cls-4" transform="translate(224.61 67.93)">Art Deco</text></svg>